<?xml version="1.0" encoding="UTF-8"?>
<svg id="a" data-name="레이어_1" xmlns="http://www.w3.org/2000/svg" viewBox="0 0 417.068 245.621">
  <defs>
    <style>
      .b {
        fill: #7f95dd;
      }

      .c {
        fill: #103484;
      }

      .d {
        fill: #2c4bce;
      }
    </style>
  </defs>
  <path class="d" d="M83.765,145.4c-18.645,0-37.344-14.956-41.179-33.165-2.51-11.92,1.346-24.521,10.859-35.481,7.075-8.151,16.886-15.049,26.919-18.926,8.234-3.181,17.072-4.392,26.161-3.641V12.745c0-7.039,5.706-12.745,12.745-12.745s12.745,5.706,12.745,12.745v48.521c10.072,4.762,19.467,11.615,26.964,19.741,16.665,18.062,20.614,39.484,21.484,50.647.547,7.017-4.698,13.15-11.715,13.697-7.02.546-13.15-4.698-13.697-11.715-.614-7.872-3.354-22.931-14.805-35.343-2.536-2.749-5.462-5.357-8.657-7.707-1.701,15.698-7.738,29.906-17.301,40.199-8.441,9.085-18.897,14.269-29.443,14.599-.36.011-.719.017-1.079.017ZM101.184,79.516c-3.99,0-7.911.65-11.634,2.088-10.567,4.083-24.057,15.712-22.021,25.377,1.514,7.191,10.341,13.108,16.52,12.925,3.634-.113,7.849-2.472,11.564-6.471,7.32-7.878,11.287-20.051,10.963-33.538-1.802-.249-3.604-.38-5.392-.38Z"/>
  <path class="b" d="M125.851,245.621c-3.184,0-6.371-1.185-8.844-3.57-5.067-4.885-5.215-12.953-.33-18.021,6.29-6.525,11.318-14.523,14.54-23.129,2.009-5.365,3.337-10.941,3.969-16.646h-52.206C37.225,184.256,0,145.84,0,98.62c0-7.039,5.706-12.745,12.745-12.745s12.745,5.706,12.745,12.745c0,33.165,25.79,60.147,57.492,60.147h59.272c5.052,0,9.796,1.996,13.356,5.621,3.576,3.64,5.573,8.676,5.481,13.813-.196,10.882-2.215,21.527-6.001,31.639-4.434,11.843-11.371,22.868-20.061,31.882-2.501,2.594-5.837,3.899-9.177,3.899Z"/>
  <path class="c" d="M193.07,158.757h-9.4c-7.04,0-12.74,5.03-12.74,11.23v64.41c0,6.2,5.7,11.22,12.74,11.22h9.4c27.19,0,49.31-19.48,49.31-43.43s-22.12-43.43-49.31-43.43ZM214.85,200.207c0,.06,0,.13-.01.19v.1c0,.05-.01.1-.01.15v.05c0,.06-.01.12-.02.17v.07c0,.08-.01.16-.02.24-.02.18-.04.38-.07.6-.01.12-.03.23-.05.34-.57,4.02-2.92,13.02-12.5,19.63-.84.58-1.93-.32-1.5-1.25.02-.04.04-.08.06-.13,1.64-3.64.08-7.87-3.45-9.74-4.22-2.24-6.94-6.91-6.29-12.14.68-5.42,5.09-9.76,10.52-10.36,7.22-.81,13.35,4.83,13.35,11.91,0,0,0,.05-.01.17Z"/>
  <path class="c" d="M393.806,37.011h-123.951c-6.723,0-12.169,5.446-12.169,12.169s5.446,12.169,12.169,12.169h17.894v20.924c0,24.983,20.328,45.311,45.317,45.311s45.311-20.328,45.311-45.311v-20.924h15.43c6.723,0,12.169-5.446,12.169-12.169s-5.446-12.169-12.169-12.169ZM354.039,82.273c0,11.566-9.407,20.973-20.973,20.973s-20.979-9.406-20.979-20.973v-20.924h41.952v20.924Z"/>
  <path class="d" d="M416.653,105.473c1.734-6.498-2.123-13.167-8.616-14.895-6.498-1.734-13.167,2.123-14.895,8.616-7.435,27.854-32.789,47.306-61.659,47.306s-54.224-19.452-61.659-47.306c-1.728-6.492-8.396-10.356-14.895-8.616-6.492,1.728-10.35,8.396-8.616,14.895,7.587,28.426,28.676,50.519,55.252,60.126-9.948,8.317-16.282,20.815-16.282,34.76v20.924h-15.43c-6.723,0-12.169,5.446-12.169,12.169s5.446,12.169,12.169,12.169h123.951c6.723,0,12.169-5.452,12.169-12.169s-5.446-12.169-12.169-12.169h-17.894v-20.924c0-13.702-6.115-25.999-15.753-34.316,27.161-9.364,48.791-31.706,56.494-60.57ZM309.622,221.284v-20.924c0-11.566,9.407-20.973,20.973-20.973s20.979,9.407,20.979,20.973v20.924h-41.952Z"/>
  <path class="b" d="M215.185,145.4c-6.634,0-12.231-5.137-12.701-11.856-1.13-16.158-6.09-31.776-14.343-45.165-5.039-8.175-11.298-15.577-18.602-22.001-5.286-4.648-5.802-12.701-1.154-17.987,4.649-5.286,12.701-5.802,17.987-1.154,9.205,8.095,17.101,17.438,23.468,27.767,10.406,16.882,16.656,36.51,18.072,56.762.491,7.021-4.803,13.112-11.824,13.603-.303.021-.604.032-.902.032Z"/>
</svg>