<?xml version="1.0" encoding="UTF-8"?>
<svg id="b" data-name="레이어 2" xmlns="http://www.w3.org/2000/svg" viewBox="0 0 913.004 289.026">
  <defs>
    <style>
      .d {
        fill: #747487;
      }

      .e {
        fill: #39357c;
      }
    </style>
  </defs>
  <g id="c" data-name="레이어 1">
    <path class="d" d="M85.26,289.02c-17.532,0-35.311-6.378-51.175-18.547C15.55,256.256,3.706,236.513.736,214.884c-2.118-15.419-.686-39.076,18.16-64.211,12.42-16.568,30.701-28.644,52.865-34.922,17.391-4.927,36.556-6.095,56.027-3.471-4.386-28.915-12.593-57.666-24.533-85.868-4.091-9.663.426-20.813,10.089-24.904,9.662-4.09,20.812.425,24.904,10.089,19.07,45.044,29.532,91.481,31.095,138.021,1.125,33.502,2.826,84.13-30.891,116.643-4.489,4.329-18.15,17.501-40.275,21.583-4.269.788-8.586,1.177-12.917,1.177ZM107.722,148.917c-24.943,0-46.585,8.762-58.422,24.551-8.914,11.89-12.587,24.085-10.917,36.247,2.159,15.719,12.725,25.923,18.831,30.607,11.138,8.545,23.24,12.15,34.069,10.152,10.876-2.007,18.081-8.953,20.792-11.568,21.411-20.646,20.258-59.146,19.307-87.472-8.071-1.694-16.021-2.517-23.661-2.517Z"/>
    <g>
      <path class="d" d="M380.157,282.246c-1.121,0-2.255-.1-3.396-.306-14.663-2.646-26.532-8.741-35.278-18.116-16.274-17.442-14.688-38.477-13.154-58.82,1.179-15.64,2.516-33.368-2.254-55.438-2.978-13.778-6.353-29.394-19.108-43.126-9.364-10.081-21.779-17.113-36.9-20.9-10.179-2.549-16.364-12.867-13.815-23.046,2.549-10.179,12.865-16.367,23.046-13.815,22.063,5.525,41.259,16.556,55.511,31.899,19.854,21.373,25.002,45.196,28.409,60.96,5.935,27.459,4.31,49.008,3.004,66.324-1.356,17.979-1.444,25.227,3.046,30.04,3.032,3.25,7.824,5.485,14.243,6.644,10.327,1.864,17.187,11.746,15.323,22.072-1.658,9.185-9.66,15.629-18.676,15.629Z"/>
      <path class="d" d="M276.329,289.026c-12.922,0-35.206-2.926-54.482-20.117-30.658-27.343-26.463-66.674-25.884-71.069,3.229-24.516,14.934-39.442,24.185-47.646,22.122-19.618,56.098-23.894,86.56-10.895,9.651,4.119,14.137,15.282,10.018,24.933-4.118,9.652-15.281,14.138-24.933,10.018-17.019-7.262-35.245-5.546-46.432,4.375-4.411,3.912-10.025,11.282-11.724,24.179-.123.941-2.808,23.199,13.502,37.746,12.34,11.005,27.966,10.706,32.464,10.355,20.783-1.633,39.738-18.685,48.29-43.44,3.426-9.918,14.245-15.184,24.162-11.754,9.918,3.426,15.181,14.244,11.755,24.162-13.489,39.047-45.374,66.098-81.23,68.916-1.691.133-3.805.238-6.252.238Z"/>
    </g>
    <g>
      <path class="e" d="M483.376,273.364c-3.814,0-7.603-.32-11.329-.969-24.494-4.261-38.513-20.597-45.25-28.448-17.84-20.791-25.911-51.356-23.987-90.849,1.375-28.233,7.588-52.09,8.82-56.585,2.772-10.121,13.226-16.078,23.344-13.305,10.121,2.772,16.078,13.224,13.305,23.344-7.475,27.288-15.557,85.948,7.356,112.649,5.01,5.838,11.872,13.834,22.924,15.757,10.07,1.751,19.115-2.412,23.609-5.049,9.05-5.313,20.691-2.282,26.004,6.768,5.312,9.05,2.282,20.692-6.768,26.004-11.968,7.025-25.14,10.684-38.029,10.684Z"/>
      <path class="e" d="M566.524,274.517c-5.007,0-9.566-.532-13.577-1.324-15.677-3.094-37.927-13.245-54.893-44.031-14.117-25.615-12.136-49.933-10.037-75.678,1.456-17.869,5.061-35.573,10.713-52.62,3.303-9.959,14.053-15.354,24.014-12.055,9.96,3.303,15.357,14.054,12.055,24.014-4.7,14.175-7.697,28.894-8.908,43.748-1.829,22.442-3.15,38.657,5.443,54.25,2.963,5.377,11.98,21.738,28.97,25.091,7.98,1.575,20.812.681,36.62-12.524,16.835-14.066,20.572-35.525,24.186-56.278,3.387-19.438,3.008-39.502-1.126-59.637-2.111-10.279,4.511-20.323,14.79-22.433,10.286-2.111,20.322,4.513,22.433,14.791,5.097,24.821,5.547,49.651,1.34,73.8-4.109,23.602-9.739,55.927-37.257,78.918-20.513,17.135-39.676,21.969-54.766,21.969Z"/>
    </g>
    <g>
      <path class="e" d="M708.531,273.144c-9.107,0-17.149-6.566-18.714-15.846-5.238-31.089-7.459-62.811-6.601-94.285.762-27.949,3.964-56.027,9.519-83.455,2.083-10.285,12.11-16.933,22.394-14.851,10.284,2.083,16.934,12.109,14.851,22.394-5.122,25.29-8.074,51.178-8.776,76.947-.792,29.02,1.256,58.268,6.087,86.935,1.743,10.348-5.231,20.149-15.579,21.893-1.068.18-2.132.267-3.18.267Z"/>
      <path class="e" d="M788.605,275.014c-2.017,0-4.068-.324-6.085-1.005-9.941-3.359-15.276-14.142-11.917-24.083,19.595-57.981,12.977-101.266-3.198-112.555-12.479-8.709-24.689-7.381-25.995-7.207-8.731,1.672-14.894,7.59-17.801,10.986-6.824,7.97-18.819,8.9-26.789,2.076-7.972-6.825-8.901-18.819-2.076-26.79,10.709-12.509,24.922-20.921,40.02-23.688,2.847-.521,28.55-4.573,54.39,13.461,17.863,12.468,28.562,34.992,30.938,65.139,2.125,26.964-2.539,58.342-13.488,90.743-2.678,7.924-10.073,12.922-17.998,12.922ZM741.612,130.127c-.048.009-.096.018-.144.027.095-.016.144-.027.144-.027Z"/>
      <path class="e" d="M881.016,275.014c-2.017,0-4.068-.324-6.085-1.005-9.941-3.359-15.276-14.142-11.917-24.083,19.595-57.981,12.977-101.266-3.198-112.555-12.506-8.728-24.745-7.375-26.005-7.206-8.705,1.654-14.879,7.583-17.789,10.983-6.823,7.972-18.819,8.902-26.789,2.08-7.973-6.823-8.903-18.817-2.08-26.79,10.707-12.509,24.92-20.923,40.021-23.69,2.902-.523,28.637-4.512,54.391,13.461,17.863,12.468,28.562,34.992,30.938,65.139,2.125,26.964-2.539,58.342-13.488,90.743-2.678,7.924-10.073,12.922-17.998,12.922Z"/>
    </g>
  </g>
</svg>