<?xml version="1.0" encoding="UTF-8"?>
<svg id="b" data-name="레이어 2" xmlns="http://www.w3.org/2000/svg" xmlns:xlink="http://www.w3.org/1999/xlink" viewBox="0 0 422.841 403.265">
  <defs>
    <style>
      .e {
        fill: #fff;
      }

      .f {
        fill: url(#d);
      }
    </style>
    <linearGradient id="d" data-name="무제 그라디언트 3" x1="397.634" y1="334.375" x2="53.321" y2="88.93" gradientUnits="userSpaceOnUse">
      <stop offset="0" stop-color="#2c4bce"/>
      <stop offset="1" stop-color="#9212ec"/>
    </linearGradient>
  </defs>
  <g id="c" data-name="레이어 1">
    <path class="f" d="M0,169.136c0-59.203,0-88.805,11.522-111.417,10.135-19.891,26.306-36.062,46.197-46.197C80.332,0,109.933,0,169.136,0h84.568c59.203,0,88.805,0,111.417,11.522,19.891,10.135,36.064,26.306,46.197,46.197,11.522,22.613,11.522,52.214,11.522,111.417v64.992c0,59.203,0,88.805-11.522,111.417-10.133,19.891-26.306,36.062-46.197,46.197-22.613,11.522-52.214,11.522-111.417,11.522h-84.568c-59.203,0-88.805,0-111.417-11.522-19.891-10.134-36.062-26.306-46.197-46.197C0,322.933,0,293.332,0,234.129v-64.992Z"/>
    <g>
      <path class="e" d="M160.451,227.961c-21.732,0-43.526-17.432-47.996-38.656-2.926-13.893,1.569-28.58,12.657-41.355,8.246-9.501,19.681-17.541,31.375-22.059,9.598-3.708,19.898-5.119,30.492-4.244v-48.302c0-8.204,6.651-14.855,14.855-14.855s14.855,6.651,14.855,14.855v56.554c11.74,5.551,22.69,13.538,31.428,23.01,19.424,21.052,24.026,46.021,25.04,59.031.638,8.179-5.476,15.327-13.655,15.964-8.182.636-15.327-5.475-15.964-13.655-.716-9.175-3.909-26.728-17.256-41.194-2.956-3.204-6.366-6.244-10.091-8.982-1.982,18.296-9.019,34.857-20.166,46.854-9.838,10.589-22.026,16.632-34.317,17.015-.419.013-.838.02-1.257.02ZM180.753,151.171c-4.65,0-9.221.758-13.56,2.434-12.317,4.758-28.04,18.313-25.667,29.578,1.765,8.381,12.053,15.278,19.255,15.064,4.235-.132,9.148-2.881,13.479-7.543,8.532-9.183,13.155-23.371,12.778-39.09-2.1-.29-4.2-.443-6.285-.443Z"/>
      <path class="e" d="M209.504,344.774c-3.711,0-7.426-1.382-10.308-4.16-5.906-5.694-6.079-15.098-.384-21.004,7.332-7.605,13.192-16.927,16.947-26.957,2.341-6.253,3.889-12.752,4.626-19.402h-60.848c-53.331,0-96.719-44.776-96.719-99.814,0-8.204,6.651-14.855,14.855-14.855s14.855,6.651,14.855,14.855c0,38.656,30.06,70.104,67.009,70.104h69.084c5.889,0,11.417,2.327,15.567,6.552,4.168,4.243,6.496,10.112,6.388,16.1-.229,12.684-2.582,25.09-6.994,36.876-5.168,13.804-13.254,26.654-23.382,37.16-2.915,3.024-6.803,4.545-10.696,4.545Z"/>
      <path class="e" d="M287.851,243.529h-10.956c-8.205,0-14.849,5.863-14.849,13.089v75.073c0,7.226,6.644,13.077,14.849,13.077h10.956c31.691,0,57.473-22.705,57.473-50.62s-25.782-50.62-57.473-50.62ZM313.237,291.841c0,.07,0,.152-.012.221v.117c0,.058-.012.117-.012.175v.058c0,.07-.012.14-.023.198v.082c0,.093-.012.186-.023.28-.023.21-.047.443-.082.699-.012.14-.035.268-.058.396-.664,4.686-3.403,15.175-14.569,22.88-.979.676-2.249-.373-1.748-1.457.023-.047.047-.093.07-.152,1.912-4.243.093-9.173-4.021-11.352-4.919-2.611-8.089-8.054-7.331-14.15.793-6.317,5.933-11.376,12.262-12.075,8.415-.944,15.56,5.63,15.56,13.882,0,0,0,.058-.012.198Z"/>
      <path class="e" d="M313.627,227.962c-7.732,0-14.256-5.988-14.803-13.819-1.317-18.833-7.098-37.037-16.718-52.642-5.873-9.528-13.168-18.156-21.682-25.643-6.161-5.418-6.763-14.804-1.345-20.964,5.418-6.161,14.804-6.763,20.964-1.345,10.729,9.435,19.932,20.324,27.353,32.363,12.129,19.677,19.413,42.554,21.064,66.158.572,8.184-5.598,15.283-13.782,15.855-.353.025-.704.037-1.052.037Z"/>
    </g>
  </g>
</svg>